/* XPM */
static char *minicoin64[] = {
/* columns rows colors chars-per-pixel */
"64 50 106 2 ",
"   c #0F3D71",
".  c #103E72",
"X  c #154274",
"o  c #194677",
"O  c #154479",
"+  c #1B4778",
"@  c #1D4A7C",
"#  c #244E7D",
"$  c #26507F",
"%  c #29517F",
"&  c #275180",
"*  c #2B5481",
"=  c #325781",
"-  c #335A85",
";  c #3B5D84",
":  c #365D88",
">  c #385E89",
",  c #3D628C",
"<  c #436286",
"1  c #41668E",
"2  c #4A698B",
"3  c #56708C",
"4  c #5B738D",
"5  c #476B93",
"6  c #4B6E95",
"7  c #4E7096",
"8  c #55769A",
"9  c #57789C",
"0  c #5C7C9F",
"q  c #617790",
"w  c #637890",
"e  c #687D95",
"r  c #5F7EA0",
"t  c #6E8195",
"y  c #6F8299",
"u  c #718396",
"i  c #76879A",
"p  c #7B8A9B",
"a  c #6280A3",
"s  c #6986A6",
"d  c #6B88A7",
"f  c #6C88A9",
"g  c #738EAD",
"h  c #7590AE",
"j  c #7792B0",
"k  c #7B95B1",
"l  c #7F98B4",
"z  c #84909E",
"x  c #8793A1",
"c  c #8F98A2",
"v  c #8A96A3",
"b  c #929BA6",
"n  c #839BB6",
"m  c #869EB8",
"M  c #889FB9",
"N  c #9AA1A8",
"B  c #8CA2BB",
"V  c #91A6BE",
"C  c #A5A9AE",
"Z  c #AAAEB2",
"A  c #ACB1B5",
"S  c #B4B7BB",
"D  c #BBBCBD",
"F  c #C2BEB9",
"G  c #CAC5BF",
"H  c #94A9C0",
"J  c #99ADC3",
"K  c #9EB1C6",
"L  c #A4B5C9",
"P  c #A7B8CB",
"I  c #ABBBCE",
"U  c #B5C4D3",
"Y  c #B9C6D6",
"T  c #BBC8D7",
"R  c #BECBD9",
"E  c #C2C2C2",
"W  c #D1CFCD",
"Q  c #C2CEDB",
"!  c #C6D1DD",
"~  c #C9D3DF",
"^  c #D7D5D3",
"/  c #DDDAD7",
"(  c #DFDCD9",
")  c #E1DEDB",
"_  c #E5E2DF",
"`  c #CCD5E1",
"'  c #CFD8E3",
"]  c #D4DCE6",
"[  c #DCE2EA",
"{  c #E4E3E2",
"}  c #E9E6E3",
"|  c #ECE9E6",
" . c #E1E7ED",
".. c #E4E9EF",
"X. c #EEECEB",
"o. c #F0EEEB",
"O. c #F3F1EE",
"+. c #E7ECF1",
"@. c #E9EDF2",
"#. c #EEF1F5",
"$. c #F3F4F4",
"%. c #F8F6F3",
"&. c #FCFAF7",
"*. c #F4F6F8",
"=. c #F7F9FA",
"-. c #FFFFFF",
/* pixels */
"-.-.-.-.-.-.-.-.-.-.-.-.-.-.-.-.-.-.-.-.-.-.-.-.-.-.-.-.-.-.-.-.-.-.-.-.-.-.-.-.-.-.-.-.-.-.-.-.-.-.-.-.-.-.-.-.-.-.-.-.-.-.-.-.",
"-.-.-.-.-.-.-.-.-.-.-.-.-.-.-.-.-.-.-.-.-.-.-.-.-.-.-.-.-.-.-.-.-.-.-.-.-.-.-.-.-.-.-.-.-.-.-.-.-.-.-.-.-.-.-.-.-.-.-.-.-.-.-.-.",
"-.-.-.-.-.-.-.-.-.-.-.-.-.-.-.-.-.-.-.-.-.-.-.-.-.-.-.-.-.-.-.-.-.-.-.-.-.-.-.-.-.-.-.-.-.-.-.-.-.-.-.-.-.-.-.-.-.-.-.-.-.-.-.-.",
"-.-.-.-.-.-.-.-.-.-.-.-.-.-.-.-.-.-.-.-.-.-.-.-.-.-.-.-.-.-.-.-.-.-.-.-.-.-.-.-.-.-.-.-.-.-.-.-.-.-.-.-.-.-.-.-.-.-.-.-.-.-.-.-.",
"-.-.-.-.-.-.-.-.-.-.-.-.-.-.-.-.-.-.-.-.-.-.-.-.-.-.-.-.-.-.-.-.-.-.-.-.-.-.-.-.-.-.-.-.-.-.-.-.-.-.-.-.-.-.-.-.-.-.-.-.-.-.-.-.",
"-.-.-.-.-.-.-.-.-.-.-.-.-.-.-.-.-.-.-.-.-.-.-.-.-.-.-.-.-.-.-.-.-.-.-.-.-.-.-.-.-.-.-.-.-.-.-.-.-.-.-.-.-.-.-.-.-.-.-.-.-.-.-.-.",
"-.-.-.-.-.-.-.-.-.-.-.-.-.-.-.-.-.-.-.-.-.-.-.-.-.-.-.-.-.-.-.-.-.-.-.-.-.-.-.-.-.-.-.-.-.-.-.-.-.-.-.-.-.-.-.-.-.-.-.-.-.-.-.-.",
"-.-.-.-.-.-.-.-.-.-.-.-.-.-.-.-.-.-.-.-.-.-.-.-.-.-.-.-.-.-.-.-.-.-.-.-.-.-.-.-.-.-.-.-.-.-.-.-.-.-.-.-.-.-.-.-.-.-.-.-.-.-.-.-.",
"-.-.-.-.-.-.-.-.-.-.-.-.-.-.-.-.-.-.-.-.-.-.-.-.-.-.-.-.-.| / E S S E ^ | -.-.-.-.-.-.-.-.-.-.-.-.-.-.-.-.-.-.-.-.-.-.-.-.-.-.-.",
"-.-.-.-.-.-.-.-.-.-.-.-.-.-.-.-.-.-.-.-.-.-.-.-.-.-.-.) Z u < % % % % < y Z ) &.-.-.-.-.-.-.-.-.-.-.-.-.-.-.-.-.-.-.-.-.-.-.-.-.",
"-.-.-.-.-.-.-.-.-.-.-.-.-.-.-.-.-.-.-.-.-.-.-.-.-.O.D q % @ @ # # # % # @ $ w D O.-.-.-.-.-.-.-.-.-.-.-.-.-.-.-.-.-.-.-.-.-.-.-.",
"-.-.-.-.-.-.-.-.-.-.-.-.-.-.-.-.-.-.-.-.-.-.-.-.O.C ; @ # % $ $ # % # # % # @ ; C o.-.-.-.-.-.-.-.-.-.-.-.-.-.-.-.-.-.-.-.-.-.-.",
"-.-.-.-.-.-.-.-.-.-.-.-.-.-.-.-.-.-.-.-.-.-.-.%.C % # % # $ # $ $ # $ # $ $ % @ = C %.-.-.-.-.-.-.-.-.-.-.-.-.-.-.-.-.-.-.-.-.-.",
"-.-.-.-.-.-.-.-.-.-.-.-.-.-.-.-.-.-.-.-.-.-.-.E < @ % $ # # $ # # $ # # $ $ $ % @ , E -.-.-.-.-.-.-.-.-.-.-.-.-.-.-.-.-.-.-.-.-.",
"-.-.-.-.-.-.-.-.-.-.-.-.-.-.-.-.-.-.-.-.-.-.} y @ % $ # # # # # $ # $ # # @ # # % @ e | -.-.-.-.-.-.-.-.-.-.-.-.-.-.-.-.-.-.-.-.",
"-.-.-.-.-.-.-.-.-.-.-.-.-.-.-.-.-.-.-.-.-.-.G % # $ # $ , - % # # $ # * - , # # # # % F -.-.-.-.-.-.-.-.-.-.-.-.-.-.-.-.-.-.-.-.",
"-.-.-.-.-.-.-.-.-.-.-.-.-.-.-.-.-.-.-.-.-.%.v @ % # $ # 0  .! # # # o U #.s # # # # @ x %.-.-.-.-.-.-.-.-.-.-.-.-.-.-.-.-.-.-.-.",
"-.-.-.-.-.-.-.-.-.-.-.-.-.-.-.-.-.-.-.-.-.} 4 O % # $ # # T *.8 + # , [ ..% # # $ * O 4 _ -.-.-.-.-.-.-.-.-.-.-.-.-.-.-.-.-.-.-.",
"-.-.-.-.-.-.-.-.-.-.-.-.-.-.-.-.-.-.-.-.-._ b , @ # # @ > J P U o o n n ] > # # # # 2 N { -.-.-.-.-.-.-.-.-.-.-.-.-.-.-.-.-.-.-.",
"-.-.-.-.-.-.-.-.-.-.-.-.-.-.-.-.-.-.-.-.-.-.o.F e # % # > L 6 $.- % L 1  .> # % # p G %.-.-.-.-.-.-.-.-.-.-.-.-.-.-.-.-.-.-.-.-.",
"-.-.-.-.-.-.-.-.-.-.-.-.-.-.-.-.-.-.-.-.-.X.S u = # $ @ , P X ] h e l & .., # # # : p E X.-.-.-.-.-.-.-.-.-.-.-.-.-.-.-.-.-.-.-.",
"-.-.-.-.-.-.-.-.-.-.-.-.-.-.-.-.-.-.-.-.-.) 4 O # $ $ # 1 P . l ] L , *  .1 @ # # # O 4 ( -.-.-.-.-.-.-.-.-.-.-.-.-.-.-.-.-.-.-.",
"-.-.-.-.-.-.-.-.-.-.-.-.-.-.-.-.-.-.-.-.-.O.p @ % # % + 1 L . * -.L   * +.1 + % # * @ i O.-.-.-.-.-.-.-.-.-.-.-.-.-.-.-.-.-.-.-.",
"-.-.-.-.-.-.-.-.-.-.-.-.-.-.-.-.-.-.-.-.-.-.A % # % # % V Q 8 X B 7 O f [ B $ # $ # % Z &.-.-.-.-.-.-.-.-.-.-.-.-.-.-.-.-.-.-.-.",
"-.-.-.-.-.-.-.-.-.-.-.-.-.-.-.-.-.-.-.-.-.-./ 4 @ $ # * : * : # # # # : * - * # $ @ 3 / -.-.-.-.-.-.-.-.-.-.-.-.-.-.-.-.-.-.-.-.",
"-.-.-.-.-.-.-.-.-.-.-.-.-.-.-.-.-.-.-.-.-.-.&.Z * # # # @ # # $ # # # # # # # # # % Z &.-.-.-.-.-.-.-.-.-.-.-.-.-.-.-.-.-.-.-.-.",
"-.-.-.-.-.-.-.-.-.-.-.-.-.-.-.-.-.-.-.-.-.-.-.| z # # % $ $ $ $ # $ # $ $ # $ # # z | -.-.-.-.-.-.-.-.-.-.-.-.-.-.-.-.-.-.-.-.-.",
"-.-.-.-.-.-.-.-.-.-.-.-.-.-.-.-.-.-.-.-.-.-.-.-._ p # @ % $ # # $ # $ # & $ # # p ( -.-.-.-.-.-.-.-.-.-.-.-.-.-.-.-.-.-.-.-.-.-.",
"-.-.-.-.-.-.-.-.-.-.-.-.-.-.-.-.-.-.-.-.-.-.-.-.-._ b ; @ @ # $ $ % $ # @ @ ; b _ -.-.-.-.-.-.-.-.-.-.-.-.-.-.-.-.-.-.-.-.-.-.-.",
"-.-.-.-.-.-.-.-.-.-.-.-.-.-.-.-.-.-.-.-.-.-.-.-.-.-.X.G p < % @ @ @ @ % < p E O.-.-.-.-.-.-.-.-.-.-.-.-.-.-.-.-.-.-.-.-.-.-.-.-.",
"-.-.-.-.-.-.-.-.-.-.-.-.-.-.-.-.-.-.-.-.-.-.-.-.-.-.-.-.o.W A b z z b Z W o.-.-.-.-.-.-.-.-.-.-.-.-.-.-.-.-.-.-.-.-.-.-.-.-.-.-.",
"-.-.-.-.-.-.-.-.-.-.-.-.-.-.-.-.-.-.-.-.-.-.-.-.-.-.-.-.-.-.-.&.%.%.&.-.-.-.-.-.-.-.-.-.-.-.-.-.-.-.-.-.-.-.-.-.-.-.-.-.-.-.-.-.",
"-.-.-.-.-.-.-.-.-.-.-.-.-.-.-.-.-.-.-.-.-.-.-.-.-.-.-.-.-.&.-.-.-.-.-.-.-.-.-.-.-.-.-.-.-.-.-.-.-.-.-.-.-.-.-.-.-.-.-.-.-.-.-.-.",
"-.-.-.-.-.-.-.-.-.-.-.-.-.-.-.-.-.-.-.-.-.-.-.-.-.-.-.-.-.-.-.-.-.-.-.-.-.-.-.-.-.-.-.-.-.-.-.-.-.-.-.-.-.-.-.-.-.-.-.-.-.-.-.-.",
"-.-.-.-.-.-.-.-.-.-.-.-.-.-.&.&.-.-.-.-.&.-.&.&.-.-.-.-.-.-.-.-.-.&.&.-.&.&.-.-.-.-.-.-.-.-.-.-.-.-.-.-.-.-.-.-.-.-.-.-.-.-.-.-.",
"-.-.-.-.-.-.-.-.-.-.-.-.-.-.-.&.-.-.-.-.-.-.-.-.-.-.-.-.-.-.-.-.-.-.-.-.-.-.-.-.-.-.-.-.-.-.-.-.-.-.-.-.-.-.-.-.-.-.-.-.-.-.-.-.",
"-.-.-.-.-.-.-.-.-.-.-.-.-.*.L K -.&.-.U B @.[ ` -.&.&.&.-.-.R #.-.#.P P H U -.&.-.&.-.[ ` -.&.&.-.-.-.-.-.-.-.-.-.-.-.-.-.-.-.-.",
"-.-.-.-.-.-.-.-.-.-.-.-.&.-.L & [ -.&.5 r &.] ! -.-.-.-.-.-.U +.#.s ! *.` l -.-.-.-.-.[ R -.-.-.-.-.-.-.-.-.-.-.-.-.-.-.-.-.-.-.",
"-.-.-.-.-.-.-.-.-.-.-.-.&.-.T j m -.` B l -.' [ *.T ! K *.=.Q =.H B -.-.-.=.-.' I ] -.] [ *.T ! K $.-.-.-.-.-.-.-.-.-.-.-.-.-.-.",
"-.-.-.-.-.-.-.-.-.-.-.-.&.-.L ! r #.L Q s -.J l *.5 R l J &.8 [ h T &.&.&.-.T B [ s ] I g *.7 U m B -.&.-.-.-.-.-.-.-.-.-.-.-.-.",
"-.-.-.-.-.-.-.-.-.-.-.-.-.-.K #.m g Q +.s -.! B -.h &.] n -.n [ B H -.&.-.&.j T -.I H +.m -.k *.[ n -.&.-.-.-.-.-.-.-.-.-.-.-.-.",
"-.-.-.-.-.-.-.-.-.-.-.-.&.-.B +.[ * *.[ 8 &.U k -.r #.R h -.s ` @.9 ` =. .J L k *.m T ` f &.a  .` h -.&.-.-.-.-.-.-.-.-.-.-.-.-.",
"-.-.-.-.-.-.-.-.-.-.-.-.-. .B R &.Q -.Q k [ U B [ n ` Y B  .B U -.[ H P J ! -.I L U -.U B [ m ! T m $.-.-.-.-.-.-.-.-.-.-.-.-.-.",
"-.-.-.-.-.-.-.-.-.-.-.-.-.-.-.-.-.-.-.-.-.-.-.-.-.-.-.-.-.-.-.-.-.-.-.-.-.-.-.-.-.-.-.&.-.-.-.-.-.-.-.-.-.-.-.-.-.-.-.-.-.-.-.-.",
"-.-.-.-.-.-.-.-.-.-.-.-.-.-.-.-.-.-.-.-.-.-.-.&.-.&.-.-.-.-.-.-.-.-.-.-.&.-.-.&.-.&.-.-.-.-.&.-.-.&.-.-.-.-.-.-.-.-.-.-.-.-.-.-.",
"-.-.-.-.-.-.-.-.-.-.-.-.-.-.-.-.-.-.-.-.-.-.-.-.-.-.-.-.-.-.-.-.-.-.-.-.-.-.-.-.-.-.-.-.-.-.-.-.-.-.-.-.-.-.-.-.-.-.-.-.-.-.-.-.",
"-.-.-.-.-.-.-.-.-.-.-.-.-.-.-.-.-.-.-.-.-.-.-.-.-.-.-.-.-.-.-.-.-.-.-.-.-.-.-.-.-.-.-.-.-.-.-.-.-.-.-.-.-.-.-.-.-.-.-.-.-.-.-.-.",
"-.-.-.-.-.-.-.-.-.-.-.-.-.-.-.-.-.-.-.-.-.-.-.-.-.-.-.-.-.-.-.-.-.-.-.-.-.-.-.-.-.-.-.-.-.-.-.-.-.-.-.-.-.-.-.-.-.-.-.-.-.-.-.-.",
"-.-.-.-.-.-.-.-.-.-.-.-.-.-.-.-.-.-.-.-.-.-.-.-.-.-.-.-.-.-.-.-.-.-.-.-.-.-.-.-.-.-.-.-.-.-.-.-.-.-.-.-.-.-.-.-.-.-.-.-.-.-.-.-.",
"-.-.-.-.-.-.-.-.-.-.-.-.-.-.-.-.-.-.-.-.-.-.-.-.-.-.-.-.-.-.-.-.-.-.-.-.-.-.-.-.-.-.-.-.-.-.-.-.-.-.-.-.-.-.-.-.-.-.-.-.-.-.-.-."
};
