/* XPM */
static char *minicoin32_0[] = {
/* columns rows colors chars-per-pixel */
"32 25 169 2 ",
"   c #05356B",
".  c #174375",
"X  c #164376",
"o  c #154477",
"O  c #174476",
"+  c #1B4676",
"@  c #1A4677",
"#  c #164478",
"$  c #194678",
"%  c #1B4778",
"&  c #1B4779",
"*  c #19467A",
"=  c #19477A",
"-  c #1B487A",
";  c #1D4979",
":  c #1E4978",
">  c #1F4978",
",  c #1C497C",
"<  c #204B7B",
"1  c #234C7A",
"2  c #234D7C",
"3  c #234E7D",
"4  c #234E7E",
"5  c #244F7E",
"6  c #27517F",
"7  c #28517F",
"8  c #2A527F",
"9  c #285180",
"0  c #285280",
"q  c #285281",
"w  c #2A5381",
"e  c #2B5481",
"r  c #2D5581",
"t  c #2C5582",
"y  c #335882",
"u  c #315985",
"i  c #395C84",
"p  c #365D88",
"a  c #375D88",
"s  c #395F89",
"d  c #416186",
"f  c #436386",
"g  c #446487",
"h  c #506C8B",
"j  c #516D8C",
"k  c #516E8E",
"l  c #53708F",
"z  c #446890",
"x  c #496C93",
"c  c #5F7893",
"v  c #55769A",
"b  c #57779B",
"n  c #607894",
"m  c #76899F",
"M  c #6482A3",
"N  c #7287A0",
"B  c #7C8EA2",
"V  c #708BAA",
"C  c #7C95B1",
"Z  c #7E97B3",
"A  c #8393A6",
"S  c #8494A7",
"D  c #8395A9",
"F  c #8495A9",
"G  c #8098B4",
"H  c #839BB5",
"J  c #889EB8",
"K  c #8AA1BA",
"L  c #92A0B0",
"P  c #94A2B1",
"I  c #90A6BD",
"U  c #91A7BF",
"Y  c #A1AAB4",
"T  c #A0ABB7",
"R  c #A1ABB8",
"E  c #ABB2BA",
"W  c #94A9C0",
"Q  c #96ABC1",
"!  c #97ABC1",
"~  c #9BAEC4",
"^  c #9EB1C5",
"/  c #A0B3C7",
"(  c #A2B3C7",
")  c #A3B5C9",
"_  c #A7B8CB",
"`  c #A8B9CC",
"'  c #ABBBCD",
"]  c #ABBCCE",
"[  c #B6BDC5",
"{  c #B6BEC7",
"}  c #B8BEC6",
"|  c #AFBFD0",
" . c #BBC2C9",
".. c #BCC2C9",
"X. c #B1C0D1",
"o. c #B2C1D2",
"O. c #B3C2D2",
"+. c #B4C3D3",
"@. c #B6C5D4",
"#. c #B7C5D4",
"$. c #B8C5D5",
"%. c #B8C6D5",
"&. c #B9C6D5",
"*. c #BBC9D7",
"=. c #BECBD9",
"-. c #C6CBD1",
";. c #C7CCD1",
":. c #C0CCDA",
">. c #C3CEDB",
",. c #C4CFDC",
"<. c #C4D0DC",
"1. c #C6D1DD",
"2. c #C7D2DE",
"3. c #CAD4E0",
"4. c #CBD5E1",
"5. c #CDD7E2",
"6. c #CFD8E3",
"7. c #D5DDE6",
"8. c #D5DEE7",
"9. c #D7DEE7",
"0. c #D7DFE8",
"q. c #D9E0E8",
"w. c #D9E1E9",
"e. c #DBE2EA",
"r. c #DCE3EA",
"t. c #DCE3EB",
"y. c #DDE3EB",
"u. c #DEE4EC",
"i. c #E3E3E3",
"p. c #E4E4E4",
"a. c #E1E7EE",
"s. c #EFEEEC",
"d. c #EFEEED",
"f. c #E6EBF0",
"g. c #E8ECF1",
"h. c #E8EDF2",
"j. c #E9EEF2",
"k. c #EBEFF3",
"l. c #F7F5F3",
"z. c #F7F6F3",
"x. c #F2F4F7",
"c. c #F7F5F4",
"v. c #FCF9F6",
"b. c #F3F5F8",
"n. c #F3F6F8",
"m. c #F4F6F8",
"M. c #F4F6F9",
"N. c #F7F8FA",
"B. c #F7F9FA",
"V. c #FAF9F8",
"C. c #FBFAF8",
"Z. c #FBFAF9",
"A. c #FEFBF9",
"S. c #FEFCF9",
"D. c #FEFCFA",
"F. c #FEFCFB",
"G. c #FAFBFC",
"H. c #FBFBFC",
"J. c #FBFCFD",
"K. c #FCFDFD",
"L. c #FDFDFD",
"P. c #FDFDFE",
"I. c #FDFEFE",
"U. c #FDFEFF",
"Y. c #FEFEFE",
"T. c #FFFFFE",
"R. c #FEFEFF",
"E. c #FEFFFF",
"W. c #FFFFFF",
/* pixels */
"W.W.W.W.W.W.W.W.W.W.W.W.W.W.W.W.W.W.W.W.W.W.W.W.W.W.W.W.W.W.W.W.",
"W.W.W.W.W.W.W.W.W.W.W.W.W.W.W.W.W.W.W.W.W.W.W.W.W.W.W.W.W.W.W.W.",
"W.W.W.W.W.W.W.W.W.W.W.W.W.W.J.W.J.W.J.W.W.W.W.W.W.W.W.W.W.W.W.W.",
"W.W.W.W.W.W.W.W.W.W.W.W.J.W.W.W.W.W.W.W.W.W.W.W.W.W.W.W.W.W.W.W.",
"W.W.W.W.W.W.W.W.W.W.W.W.W.v...D m D ..v.W.W.W.W.W.W.W.W.W.W.W.W.",
"W.W.W.W.W.W.W.W.W.W.W.W.p.n > * * # > n i.W.J.W.W.W.W.W.W.W.W.W.",
"W.W.W.W.W.W.W.W.W.W.W.d.h o 5 q 6 6 4 o h d.W.W.W.W.W.W.W.W.W.W.",
"W.W.W.W.W.W.W.W.W.W.W.L + q i q 4 6 p q . L W.W.W.W.W.W.W.W.W.W.",
"W.W.W.W.W.W.W.W.W.W.l.f , % I U   J ^ % - f l.W.W.W.W.W.W.W.W.W.",
"W.W.W.W.W.W.W.W.W.W.V.Y y * M ' u K G o i E V.W.W.W.W.W.W.W.W.W.",
"W.W.W.W.W.W.W.W.W.W.l.m q < b V ( v C * r B c.W.W.W.W.W.W.W.W.W.",
"W.W.W.W.W.W.W.W.W.W.V.l * 9 C x H z ! 4 * k V.W.W.W.W.W.W.W.W.W.",
"W.W.W.W.W.W.W.W.W.W.W.[ + q s e , r p 8 + [ W.J.W.W.W.W.W.W.W.W.",
"W.W.W.W.W.W.W.W.W.W.W.V.S . - 4 8 5 - . A A.W.W.W.W.W.W.W.W.W.W.",
"W.W.W.W.W.W.W.W.W.W.W.W.S.Y f 1 < 2 f P v.W.W.W.W.W.W.W.W.W.W.W.",
"W.W.W.W.W.W.W.W.W.W.W.W.W.W.d.-.} ;.d.W.W.W.W.W.W.W.W.W.W.W.W.W.",
"W.W.W.W.W.W.W.W.W.W.W.W.W.H.W.W.W.W.W.W.W.W.W.W.W.W.W.W.W.W.W.W.",
"W.W.W.W.W.W.W.W.W.W.W.W.W.W.W.W.W.N.V.W.W.W.W.W.W.W.W.W.W.W.W.W.",
"W.W.W.W.W.W.H.I N.=.X.j.W.W.J.f.7.<.*.J.W.n.j.W.W.W.W.W.W.W.W.W.",
"W.W.W.W.W.W.W.~ &.` &.4.>.` w.:./ W.W.6.<.3.4.X.&.W.W.W.W.W.W.W.",
"W.W.W.W.W.W.n.:.! @.@.&.| X.@.X._ a.q.) <.) X.+.` n.W.W.W.W.W.W.",
"W.W.W.W.W.W.n.w.M.j.0.y.w.w.w.u.n.6.y.f.y.k.7.w.7.M.W.W.W.W.W.W.",
"W.W.W.W.W.W.W.W.W.W.W.W.W.W.W.W.W.W.W.W.W.W.W.W.W.W.W.W.W.W.W.W.",
"W.W.W.W.W.W.W.J.W.W.W.W.J.W.W.W.W.W.W.W.W.W.W.W.W.W.W.W.W.W.W.W.",
"W.W.W.W.W.W.W.W.W.W.W.W.W.W.W.W.W.W.W.W.W.W.W.W.W.W.W.W.W.W.W.W."
};
